<svg width="90" height="88" viewBox="0 0 90 88" fill="none" xmlns="http://www.w3.org/2000/svg">
<path d="M59.3389 83.5713C67.8062 74.9349 72.6867 60.6751 63.8694 50.4169C59.7777 45.6409 52.7213 43.3537 46.6994 45.5442C42.0261 47.2454 39.5719 52.5634 43.7538 56.1495C45.2518 57.3395 47.0129 58.1522 48.8901 58.5198C50.7674 58.8874 52.7063 58.7993 54.545 58.2628C68.5938 54.2645 65.2738 36.5033 58.1586 27.9772C49.9154 18.0772 36.9859 13.1828 24.2963 14.1253C22.4554 14.2599 22.0891 11.4087 23.9301 11.274C37.6894 10.2547 51.5629 15.5393 60.464 26.2598C67.7238 34.9826 70.8487 48.9763 61.5409 57.5891C59.5562 59.4239 57.1194 60.6942 54.4832 61.2683C51.8469 61.8424 49.1073 61.6993 46.5486 60.8538C42.399 59.4882 37.9508 55.7474 38.3165 50.9273C38.6995 45.4067 44.9543 42.472 49.7733 41.9672C52.4489 41.7113 55.1468 42.0241 57.6907 42.885C60.2347 43.7459 62.5674 45.1356 64.5367 46.9634C76.1006 57.7629 71.4819 75.2668 61.5791 85.3548C60.3014 86.6548 58.0412 84.894 59.3389 83.5713Z" fill="#BCD2FE"/>
<path d="M36.7003 7.33486C31.9412 8.92884 27.2786 10.8008 22.7365 12.941L23.3438 10.7527C27.1155 15.3069 30.4792 20.1863 33.3958 25.3341C34.2886 26.9204 31.9846 28.6592 31.0905 27.0515C28.179 21.9037 24.8182 17.0254 21.0472 12.4738C20.9189 12.2968 20.8322 12.0928 20.7936 11.8773C20.755 11.6617 20.7654 11.44 20.8242 11.2288C20.8829 11.0176 20.9884 10.8223 21.1328 10.6574C21.2773 10.4926 21.4569 10.3624 21.6583 10.2767C26.1887 8.13289 30.8395 6.25601 35.5869 4.65567C37.3278 4.07265 38.4148 6.74065 36.6563 7.31621L36.7003 7.33486Z" fill="#BCD2FE"/>
</svg>
