<svg width="60" height="76" viewBox="0 0 60 76" fill="none" xmlns="http://www.w3.org/2000/svg">
<path opacity="0.67" d="M57.0806 54.8631C57.8836 57.9966 58.5368 61.3546 59.0182 64.9598L56.4973 65.2991C49.3172 11.5876 2.48637 14.6051 2.01398 14.6422L1.81887 12.1082C2.28386 12.0729 45.4041 9.30241 57.0806 54.8631Z" fill="white"/>
<path d="M13.5327 8.87057C13.6882 9.47708 13.374 10.1214 12.7766 10.3623L4.29901 13.7844L9.78222 18.6249C10.308 19.088 10.3575 19.8908 9.8924 20.4177C9.42735 20.9447 8.6231 20.9935 8.09704 20.5291L1.07315 14.3293C0.743302 14.0362 0.586929 13.5951 0.662582 13.1628C0.737919 12.7292 1.03173 12.3641 1.43986 12.1992L11.8248 8.00642C12.4758 7.74388 13.2182 8.05836 13.4803 8.70702C13.5022 8.76172 13.5189 8.81644 13.5327 8.87057Z" fill="#BCD2FE"/>
</svg>
