<svg width="14" height="18" viewBox="0 0 14 18" fill="none" xmlns="http://www.w3.org/2000/svg">
<path d="M13.2825 4.61853L9.60225 0.743054C9.15425 0.281345 8.526 0.00503924 7.8085 0.00503924H2.51213C1.16638 -0.0876626 3.82626e-06 1.11206 3.82626e-06 2.49629V15.416C-0.000572845 15.7556 0.0640405 16.092 0.190137 16.4058C0.316233 16.7196 0.501331 17.0047 0.734811 17.2448C0.968291 17.4849 1.24556 17.6752 1.5507 17.8048C1.85585 17.9344 2.18287 18.0007 2.513 18H11.487C11.8171 18.0007 12.1441 17.9344 12.4493 17.8048C12.7544 17.6752 13.0317 17.4849 13.2652 17.2448C13.4987 17.0047 13.6838 16.7196 13.8099 16.4058C13.936 16.092 14.0006 15.7556 14 15.416V6.37266C14 5.72645 13.7305 5.08024 13.2825 4.61853ZM4.30763 7.29518H7C7.35875 7.29518 7.7175 7.57239 7.7175 8.0332C7.7175 8.49491 7.44887 8.77121 7 8.77121H4.30763C4.21308 8.77242 4.11925 8.75416 4.03167 8.71749C3.94409 8.68083 3.86452 8.62652 3.79766 8.55774C3.7308 8.48897 3.67799 8.40713 3.64235 8.31705C3.60671 8.22696 3.58895 8.13045 3.59013 8.0332C3.59013 7.57149 3.94888 7.29518 4.30763 7.29518ZM9.69237 12.4631H4.30763C3.94888 12.4631 3.59013 12.1859 3.59013 11.7251C3.59013 11.2643 3.85875 10.9871 4.30763 10.9871H9.69237C10.0511 10.9871 10.4099 11.2634 10.4099 11.7251C10.4099 12.1868 10.0511 12.4631 9.69237 12.4631Z" fill="#538AFF"/>
</svg>
