<svg width="79" height="66" viewBox="0 0 79 66" fill="none" xmlns="http://www.w3.org/2000/svg">
<path d="M65.1077 56.303C65.2313 56.2856 65.3501 13.8173 65.4769 13.8046C67.447 13.6128 69.4169 14.171 70.9783 15.3635C72.5398 16.5561 73.5732 18.2915 73.8643 20.2102L78.65 51.7873C78.7987 52.7683 78.7486 53.7683 78.5028 54.7304C78.257 55.6924 77.8201 56.5976 77.2172 57.3942C76.6143 58.1909 75.8572 58.8633 74.9891 59.3732C74.1209 59.8832 73.1588 60.2205 72.1575 60.3661L33.9919 65.9186C31.9783 66.2113 29.9282 65.7119 28.2891 64.5291C26.6499 63.3464 25.5548 61.5765 25.2426 59.6055C25.2426 59.5897 25.2378 58.7825 25.2354 58.7659" fill="#536DFF" fill-opacity="0.13"/>
<path d="M58.3875 58.9169H19.8034C17.4387 58.9144 15.1716 57.9929 13.4994 56.3547C11.8272 54.7164 10.8866 52.4952 10.8838 50.1782V30.1921C10.8838 29.8772 11.0114 29.5753 11.2386 29.3527C11.4659 29.1301 11.774 29.005 12.0954 29.005C12.4167 29.005 12.7249 29.1301 12.9521 29.3527C13.1793 29.5753 13.307 29.8772 13.307 30.1921V50.1782C13.3091 51.8657 13.9942 53.4834 15.2121 54.6765C16.43 55.8697 18.0812 56.5408 19.8034 56.5427H58.3875C60.1096 56.5406 61.7606 55.8694 62.9783 54.6763C64.196 53.4831 64.8811 51.8655 64.8832 50.1782V18.2522C64.8813 16.5647 64.1963 14.9469 62.9786 13.7536C61.7609 12.5603 60.1098 11.889 58.3875 11.8869H30.7311C30.4098 11.8869 30.1016 11.7618 29.8744 11.5392C29.6472 11.3166 29.5195 11.0146 29.5195 10.6998C29.5195 10.385 29.6472 10.083 29.8744 9.86039C30.1016 9.63776 30.4098 9.5127 30.7311 9.5127H58.3875C60.7522 9.51542 63.0193 10.4371 64.6913 12.0755C66.3633 13.7139 67.3038 15.9352 67.3064 18.2522V50.1782C67.3038 52.4951 66.3633 54.7163 64.6913 56.3546C63.0192 57.9929 60.7522 58.9144 58.3875 58.9169Z" fill="#536DFF"/>
<path d="M64.5953 50.6856C64.4362 50.6857 64.2786 50.655 64.1317 50.5953C63.9847 50.5355 63.8513 50.4479 63.7391 50.3374L54.6296 41.4127C54.1473 40.9621 53.5065 40.7106 52.8401 40.7106C52.1736 40.7106 51.5328 40.9621 51.0506 41.4127L45.3028 47.0436C45.0756 47.2661 44.7675 47.3911 44.4462 47.3911C44.125 47.3911 43.8168 47.2661 43.5896 47.0436L29.4489 33.1877C28.9736 32.7235 28.33 32.4629 27.6589 32.4629C26.9879 32.4629 26.3443 32.7235 25.869 33.1877L14.4527 44.3742C14.2255 44.5967 13.9174 44.7217 13.5961 44.7217C13.2748 44.7217 12.9667 44.5967 12.7395 44.3742C12.5124 44.1515 12.3848 43.8496 12.3848 43.5349C12.3848 43.2201 12.5124 42.9182 12.7395 42.6956L24.1558 31.5091C25.0857 30.6002 26.3455 30.0898 27.6589 30.0898C28.9724 30.0898 30.2322 30.6002 31.162 31.5091L44.4458 44.5253L49.3374 39.7342C49.7959 39.2814 50.3416 38.9224 50.9428 38.6779C51.544 38.4333 52.1887 38.3082 52.8397 38.3096C53.4907 38.3081 54.1356 38.4332 54.737 38.6778C55.3383 38.9223 55.8841 39.2814 56.3428 39.7342L65.4522 48.6557C65.6794 48.8783 65.807 49.1802 65.807 49.4949C65.807 49.8097 65.6794 50.1116 65.4522 50.3342C65.34 50.4452 65.2065 50.5333 65.0595 50.5936C64.9124 50.6539 64.7547 50.6852 64.5953 50.6856Z" fill="#536DFF"/>
<path d="M52.5955 29.5231C51.0808 29.522 49.6283 28.9322 48.557 27.8831C47.4856 26.834 46.8828 25.4112 46.8809 23.9271C46.8828 22.4434 47.4852 21.021 48.5561 19.9719C49.627 18.9228 51.0788 18.3327 52.5931 18.3311C54.1073 18.3327 55.559 18.9228 56.6297 19.9719C57.7005 21.021 58.3028 22.4434 58.3045 23.9271C58.3028 25.4103 57.7008 26.8323 56.6306 27.8814C55.5604 28.9304 54.1093 29.5208 52.5955 29.5231ZM52.5955 20.7053C51.7233 20.7055 50.8868 21.0448 50.2697 21.6487C49.6526 22.2526 49.3053 23.0717 49.304 23.9263C49.3049 24.7807 49.6517 25.5999 50.2683 26.2041C50.8849 26.8083 51.721 27.148 52.5931 27.1489C53.4649 27.148 54.3008 26.8083 54.9173 26.2043C55.5337 25.6003 55.8805 24.7813 55.8813 23.9271C55.8805 23.0733 55.5341 22.2546 54.9181 21.6507C54.3022 21.0467 53.4669 20.7067 52.5955 20.7053Z" fill="#536DFF"/>
<path d="M13.2701 26.004C20.5989 26.004 26.5401 20.1828 26.5401 13.002C26.5401 5.82119 20.5989 0 13.2701 0C5.94121 0 0 5.82119 0 13.002C0 20.1828 5.94121 26.004 13.2701 26.004Z" fill="#DBE1FF"/>
<path d="M18.0326 13.9342H8.75588C8.58675 13.9342 8.42454 13.8482 8.30494 13.6952C8.18535 13.5421 8.11816 13.3345 8.11816 13.118C8.11816 12.9015 8.18535 12.6939 8.30494 12.5408C8.42454 12.3878 8.58675 12.3018 8.75588 12.3018H18.0326C18.2017 12.3018 18.3639 12.3878 18.4835 12.5408C18.6031 12.6939 18.6703 12.9015 18.6703 13.118C18.6703 13.3345 18.6031 13.5421 18.4835 13.6952C18.3639 13.8482 18.2017 13.9342 18.0326 13.9342Z" fill="#536DFF"/>
<path d="M13.3936 18.2862C13.1727 18.2862 12.9608 18.2204 12.8045 18.1032C12.6483 17.986 12.5605 17.8271 12.5605 17.6614V8.5721C12.5605 8.40638 12.6483 8.24745 12.8045 8.13028C12.9608 8.0131 13.1727 7.94727 13.3936 7.94727C13.6146 7.94727 13.8264 8.0131 13.9827 8.13028C14.1389 8.24745 14.2267 8.40638 14.2267 8.5721V17.6614C14.2267 17.8271 14.1389 17.986 13.9827 18.1032C13.8264 18.2204 13.6146 18.2862 13.3936 18.2862Z" fill="#536DFF"/>
</svg>
