<svg width="20" height="12" viewBox="0 0 20 12" fill="none" xmlns="http://www.w3.org/2000/svg">
<path fill-rule="evenodd" clip-rule="evenodd" d="M19.5417 0.79C19.68 0.335 19.5417 0 18.8792 0H16.6917C16.135 0 15.8783 0.289167 15.7392 0.608333C15.7392 0.608333 14.6267 3.27167 13.0508 5.00167C12.5408 5.50333 12.3092 5.6625 12.0308 5.6625C11.8917 5.6625 11.6825 5.50333 11.6825 5.0475V0.79C11.6825 0.243333 11.5292 0 11.0658 0H7.62583C7.27833 0 7.06917 0.253333 7.06917 0.494167C7.06917 1.01167 7.8575 1.13167 7.93833 2.58833V5.75333C7.93833 6.4475 7.81083 6.57333 7.5325 6.57333C6.79083 6.57333 4.98667 3.8975 3.91583 0.835833C3.70833 0.24 3.49833 0 2.93917 0H0.75C0.125 0 0 0.289167 0 0.608333C0 1.17667 0.741667 4 3.45417 7.73417C5.2625 10.2842 7.80833 11.6667 10.1275 11.6667C11.5183 11.6667 11.69 11.36 11.69 10.8308V8.90333C11.69 8.28917 11.8217 8.16667 12.2625 8.16667C12.5875 8.16667 13.1433 8.32667 14.4417 9.55583C15.925 11.0133 16.1692 11.6667 17.0042 11.6667H19.1917C19.8167 11.6667 20.13 11.36 19.95 10.7533C19.7517 10.15 19.0433 9.27417 18.1042 8.235C17.5942 7.64333 16.8292 7.00583 16.5967 6.68667C16.2725 6.2775 16.365 6.095 16.5967 5.73083C16.5967 5.73083 19.2633 2.0425 19.5408 0.79" fill="white"/>
</svg>
