<svg width="18" height="14" viewBox="0 0 18 14" fill="none" xmlns="http://www.w3.org/2000/svg">
<path d="M16.7245 9.48519C16.8575 9.38739 16.9623 9.25625 17.0284 9.10499C17.0945 8.95373 17.1196 8.78771 17.101 8.62368C17.0825 8.45965 17.021 8.30342 16.9228 8.17074C16.8246 8.03807 16.6931 7.93365 16.5416 7.86802V6.57812L15.7875 6.89862V7.86802C15.636 7.93361 15.5044 8.03804 15.4061 8.17075C15.3078 8.30346 15.2463 8.45975 15.2278 8.62385C15.2092 8.78794 15.2343 8.95402 15.3005 9.10532C15.3666 9.25662 15.4716 9.38779 15.6046 9.48556C15.4863 9.57256 15.3901 9.68611 15.3236 9.81708C15.2571 9.94806 15.2223 10.0928 15.2219 10.2397V11.1819C15.2219 11.2819 15.2617 11.3778 15.3324 11.4485C15.4031 11.5192 15.499 11.559 15.599 11.559H16.7302C16.8302 11.559 16.9261 11.5192 16.9968 11.4485C17.0675 11.3778 17.1072 11.2819 17.1072 11.1819V10.2393C17.1068 10.0924 17.072 9.94768 17.0056 9.81671C16.9391 9.68574 16.8428 9.57219 16.7245 9.48519ZM14.6564 7.37747V10.1676C14.6584 10.492 14.5761 10.8114 14.4174 11.0943C14.2588 11.3772 14.0293 11.614 13.7514 11.7814C12.3098 12.6236 10.6702 13.0674 9.00056 13.0674C7.33095 13.0674 5.69135 12.6236 4.24969 11.7814C3.97185 11.614 3.74234 11.3772 3.58368 11.0943C3.42503 10.8114 3.3427 10.492 3.34476 10.1676V7.37747L7.97121 9.33437C8.29712 9.47125 8.64707 9.54176 9.00056 9.54176C9.35406 9.54176 9.704 9.47125 10.0299 9.33437L14.6564 7.37747Z" fill="#538AFF"/>
<path d="M17.3095 3.35325L9.73525 0.148318C9.50249 0.0504253 9.25251 0 9 0C8.74749 0 8.49751 0.0504253 8.26475 0.148318L0.690502 3.35325C0.485777 3.43984 0.311103 3.58484 0.188298 3.77012C0.0654928 3.9554 0 4.17276 0 4.39504C0 4.61732 0.0654928 4.83468 0.188298 5.01996C0.311103 5.20525 0.485777 5.35024 0.690502 5.43683L8.26475 8.64176C8.49746 8.73986 8.74745 8.7904 9 8.7904C9.25255 8.7904 9.50254 8.73986 9.73525 8.64176L17.3095 5.43683C17.5142 5.35024 17.6889 5.20525 17.8117 5.01996C17.9345 4.83468 18 4.61732 18 4.39504C18 4.17276 17.9345 3.9554 17.8117 3.77012C17.6889 3.58484 17.5142 3.43984 17.3095 3.35325Z" fill="#538AFF"/>
</svg>
