<svg width="28" height="25" viewBox="0 0 28 25" fill="none" xmlns="http://www.w3.org/2000/svg">
<path fill-rule="evenodd" clip-rule="evenodd" d="M15.2398 2.10438L13.9221 3.42213L12.6043 2.10438C11.2051 0.742474 9.32578 -0.0134901 7.37326 0.00018228C5.42073 0.0138547 3.55217 0.796064 2.17218 2.17743C0.792194 3.5588 0.0118538 5.42814 0.000133936 7.38068C-0.0115859 9.33322 0.746257 11.2118 2.10956 12.6096L12.0671 22.5671L13.9221 24.4221L15.7771 22.5671L25.7346 12.6096C27.0979 11.2118 27.8557 9.33322 27.844 7.38068C27.8323 5.42814 27.0519 3.5588 25.6719 2.17743C24.292 0.796064 22.4234 0.0138547 20.4709 0.00018228C18.5183 -0.0134901 16.639 0.742474 15.2398 2.10438ZM13.9221 20.7104L23.8796 10.7529C24.7656 9.85015 25.2596 8.63415 25.254 7.36923C25.2485 6.10431 24.7438 4.89271 23.8499 3.9978C22.9559 3.1029 21.7448 2.59703 20.4799 2.59016C19.215 2.5833 17.9985 3.07599 17.0948 3.96113L15.7788 5.27888L13.9221 7.13213L12.0671 5.27713L10.7493 3.96113V3.95938C9.84844 3.05967 8.62705 2.55467 7.35384 2.5555C6.08064 2.55632 4.8599 3.06288 3.96019 3.96376C3.06047 4.86463 2.55548 6.08602 2.5563 7.35922C2.55712 8.63243 3.06369 9.85317 3.96456 10.7529L13.9221 20.7121V20.7104Z" fill="#FF3737"/>
</svg>
