<svg width="62" height="62" viewBox="0 0 62 62" fill="none" xmlns="http://www.w3.org/2000/svg">
<rect width="62" height="62" rx="31" fill="#333333"/>
<path d="M26.9176 33.6191C26.7164 33.6191 26.5807 33.6388 26.5107 33.6585V34.947C26.5939 34.9666 26.6978 34.9721 26.8411 34.9721C27.365 34.9721 27.6876 34.7074 27.6876 34.2612C27.6876 33.8598 27.4098 33.6191 26.9176 33.6191ZM30.7315 33.6323C30.5128 33.6323 30.3706 33.652 30.2864 33.6716V36.5263C30.3706 36.546 30.5062 36.546 30.6287 36.546C31.5223 36.5526 32.1042 36.0604 32.1042 35.0191C32.1107 34.1113 31.5803 33.6323 30.7315 33.6323Z" fill="white"/>
<path d="M33.1875 19.75H24.4375C23.8573 19.75 23.3009 19.9805 22.8907 20.3907C22.4805 20.8009 22.25 21.3573 22.25 21.9375V39.4375C22.25 40.0177 22.4805 40.5741 22.8907 40.9843C23.3009 41.3945 23.8573 41.625 24.4375 41.625H37.5625C38.1427 41.625 38.6991 41.3945 39.1093 40.9843C39.5195 40.5741 39.75 40.0177 39.75 39.4375V26.3125L33.1875 19.75ZM28.2634 35.2703C27.9255 35.5875 27.4267 35.7297 26.8459 35.7297C26.7333 35.7318 26.6207 35.7252 26.5091 35.71V37.2697H25.5312V32.9647C25.9725 32.8986 26.4184 32.8686 26.8645 32.875C27.4737 32.875 27.9069 32.9909 28.1989 33.2239C28.4767 33.4448 28.6648 33.8069 28.6648 34.2334C28.6637 34.6622 28.5216 35.0242 28.2634 35.2703ZM32.4273 36.7523C31.968 37.1341 31.2691 37.3156 30.4148 37.3156C29.903 37.3156 29.5409 37.2828 29.2948 37.25V32.9658C29.7363 32.9016 30.182 32.8712 30.6281 32.875C31.4561 32.875 31.9942 33.0237 32.4142 33.3409C32.8681 33.6778 33.1525 34.2148 33.1525 34.9859C33.1525 35.8205 32.8473 36.3969 32.4273 36.7523ZM36.4688 33.7172H34.7931V34.7136H36.3594V35.5164H34.7931V37.2708H33.8022V32.9078H36.4688V33.7172ZM33.1875 27.4062H32.0938V21.9375L37.5625 27.4062H33.1875Z" fill="white"/>
</svg>
