<svg width="26" height="25" viewBox="0 0 26 25" fill="none" xmlns="http://www.w3.org/2000/svg">
<path d="M8.44249 7.3943L0.999155 8.47346L0.867321 8.5003C0.66775 8.55328 0.485815 8.65827 0.340096 8.80457C0.194376 8.95086 0.090092 9.1332 0.0378938 9.33298C-0.0143044 9.53275 -0.0125469 9.74281 0.0429868 9.94168C0.0985205 10.1406 0.205841 10.3211 0.353988 10.465L5.74632 15.7138L4.47465 23.128L4.45949 23.2563C4.44727 23.4627 4.49013 23.6687 4.58368 23.8531C4.67723 24.0375 4.8181 24.1937 4.99188 24.3057C5.16566 24.4178 5.36609 24.4816 5.57266 24.4908C5.77923 24.4999 5.98451 24.4539 6.16749 24.3576L12.8245 20.8576L19.4663 24.3576L19.583 24.4113C19.7756 24.4871 19.9848 24.5104 20.1894 24.4787C20.3939 24.447 20.5863 24.3614 20.7468 24.2308C20.9074 24.1002 21.0303 23.9292 21.103 23.7354C21.1756 23.5416 21.1954 23.3319 21.1603 23.128L19.8875 15.7138L25.2822 10.4638L25.3732 10.3646C25.5031 10.2045 25.5884 10.0128 25.6202 9.80906C25.6519 9.60529 25.6292 9.39674 25.5541 9.20465C25.479 9.01256 25.3544 8.8438 25.1929 8.71556C25.0314 8.58732 24.8388 8.50419 24.6347 8.47463L17.1913 7.3943L13.864 0.650964C13.7677 0.455588 13.6187 0.291065 13.4337 0.17602C13.2488 0.0609739 13.0353 0 12.8175 0C12.5997 0 12.3862 0.0609739 12.2013 0.17602C12.0163 0.291065 11.8673 0.455588 11.771 0.650964L8.44249 7.3943Z" fill="#FFC107"/>
</svg>
