<svg width="16" height="16" viewBox="0 0 16 16" fill="none" xmlns="http://www.w3.org/2000/svg">
<path d="M0 4.79994V13.9998C0 14.4242 0.168571 14.8311 0.468629 15.1312C0.768687 15.4312 1.17565 15.5998 1.6 15.5998H14.4C14.8243 15.5998 15.2313 15.4312 15.5314 15.1312C15.8314 14.8311 16 14.4242 16 13.9998V4.79994H0ZM4.8 12.7998C4.8 13.012 4.71571 13.2155 4.56569 13.3655C4.41566 13.5155 4.21217 13.5998 4 13.5998H3.2C2.98783 13.5998 2.78434 13.5155 2.63431 13.3655C2.48429 13.2155 2.4 13.012 2.4 12.7998V11.9999C2.4 11.7877 2.48429 11.5842 2.63431 11.4342C2.78434 11.2841 2.98783 11.1999 3.2 11.1999H4C4.21217 11.1999 4.41566 11.2841 4.56569 11.4342C4.71571 11.5842 4.8 11.7877 4.8 11.9999V12.7998ZM4.8 8.3999C4.8 8.61207 4.71571 8.81555 4.56569 8.96557C4.41566 9.1156 4.21217 9.19989 4 9.19989H3.2C2.98783 9.19989 2.78434 9.1156 2.63431 8.96557C2.48429 8.81555 2.4 8.61207 2.4 8.3999V7.59991C2.4 7.38774 2.48429 7.18426 2.63431 7.03423C2.78434 6.8842 2.98783 6.79992 3.2 6.79992H4C4.21217 6.79992 4.41566 6.8842 4.56569 7.03423C4.71571 7.18426 4.8 7.38774 4.8 7.59991V8.3999ZM9.2 12.7998C9.2 13.012 9.11571 13.2155 8.96569 13.3655C8.81566 13.5155 8.61217 13.5998 8.4 13.5998H7.6C7.38783 13.5998 7.18434 13.5155 7.03431 13.3655C6.88429 13.2155 6.8 13.012 6.8 12.7998V11.9999C6.8 11.7877 6.88429 11.5842 7.03431 11.4342C7.18434 11.2841 7.38783 11.1999 7.6 11.1999H8.4C8.61217 11.1999 8.81566 11.2841 8.96569 11.4342C9.11571 11.5842 9.2 11.7877 9.2 11.9999V12.7998ZM9.2 8.3999C9.2 8.61207 9.11571 8.81555 8.96569 8.96557C8.81566 9.1156 8.61217 9.19989 8.4 9.19989H7.6C7.38783 9.19989 7.18434 9.1156 7.03431 8.96557C6.88429 8.81555 6.8 8.61207 6.8 8.3999V7.59991C6.8 7.38774 6.88429 7.18426 7.03431 7.03423C7.18434 6.8842 7.38783 6.79992 7.6 6.79992H8.4C8.61217 6.79992 8.81566 6.8842 8.96569 7.03423C9.11571 7.18426 9.2 7.38774 9.2 7.59991V8.3999ZM13.6 12.7998C13.6 13.012 13.5157 13.2155 13.3657 13.3655C13.2157 13.5155 13.0122 13.5998 12.8 13.5998H12C11.7878 13.5998 11.5843 13.5155 11.4343 13.3655C11.2843 13.2155 11.2 13.012 11.2 12.7998V11.9999C11.2 11.7877 11.2843 11.5842 11.4343 11.4342C11.5843 11.2841 11.7878 11.1999 12 11.1999H12.8C13.0122 11.1999 13.2157 11.2841 13.3657 11.4342C13.5157 11.5842 13.6 11.7877 13.6 11.9999V12.7998ZM13.6 8.3999C13.6 8.61207 13.5157 8.81555 13.3657 8.96557C13.2157 9.1156 13.0122 9.19989 12.8 9.19989H12C11.7878 9.19989 11.5843 9.1156 11.4343 8.96557C11.2843 8.81555 11.2 8.61207 11.2 8.3999V7.59991C11.2 7.38774 11.2843 7.18426 11.4343 7.03423C11.5843 6.8842 11.7878 6.79992 12 6.79992H12.8C13.0122 6.79992 13.2157 6.8842 13.3657 7.03423C13.5157 7.18426 13.6 7.38774 13.6 7.59991V8.3999ZM16 3.99995V1.59998C16 1.17564 15.8314 0.768678 15.5314 0.468623C15.2313 0.168569 14.8243 0 14.4 0H14V0.399995C14 1.28238 13.2824 1.99998 12.4 1.99998C11.5176 1.99998 10.8 1.28238 10.8 0.399995V0H5.2V0.399995C5.2 1.28238 4.4824 1.99998 3.6 1.99998C2.7176 1.99998 2 1.28238 2 0.399995V0H1.6C1.17565 0 0.768687 0.168569 0.468629 0.468623C0.168571 0.768678 0 1.17564 0 1.59998V3.99995H16Z" fill="white" fill-opacity="0.5"/>
</svg>
