<svg width="13" height="16" viewBox="0 0 13 16" fill="none" xmlns="http://www.w3.org/2000/svg">
<path d="M6.0086 15.1679H11.0741C11.5957 15.1679 12.019 14.7447 12.019 14.2231V0.944872C12.019 0.423317 11.5957 0 11.0741 0H4.32426V0.312576C4.32782 0.344727 4.32962 0.378663 4.32962 0.4126V3.00073C4.32962 3.73484 3.73305 4.33141 2.99894 4.33141H0.410814C0.384022 4.33141 0.355443 4.32962 0.328651 4.32784H0V14.2231C0 14.7447 0.423317 15.1679 0.944872 15.1679H6.0086ZM6.19972 11.9565H2.89713C2.65064 11.9565 2.4506 11.7564 2.4506 11.5099C2.4506 11.2634 2.65064 11.0634 2.89713 11.0634H6.20151C6.44799 11.0634 6.64804 11.2634 6.64804 11.5099C6.64804 11.7564 6.44621 11.9565 6.19972 11.9565ZM9.50409 9.67737H2.89713C2.65064 9.67737 2.4506 9.4773 2.4506 9.23083C2.4506 8.98432 2.65064 8.78429 2.89713 8.78429H9.50409C9.75058 8.78429 9.95063 8.98432 9.95063 9.23083C9.95063 9.4773 9.75058 9.67737 9.50409 9.67737ZM2.89713 6.36404H9.50409C9.75058 6.36404 9.95063 6.56409 9.95063 6.81058C9.95063 7.05707 9.75058 7.25712 9.50409 7.25712H2.89713C2.65064 7.25712 2.4506 7.05707 2.4506 6.81058C2.4506 6.56409 2.65064 6.36404 2.89713 6.36404Z" fill="white" fill-opacity="0.5"/>
</svg>
