<svg width="16" height="18" viewBox="0 0 16 18" fill="none" xmlns="http://www.w3.org/2000/svg">
<path d="M15.6038 2.14042L8.15987 0.0222483C8.05563 -0.00741611 7.94452 -0.00741611 7.84028 0.0222483L0.396197 2.14042C0.281677 2.17301 0.181285 2.23975 0.109916 2.33073C0.038546 2.42172 1.27328e-06 2.5321 0 2.64551V10.4121C0 11.4223 0.431187 12.4564 1.28152 13.4856C1.93095 14.2717 2.82946 15.0611 3.952 15.8318C5.8378 17.1266 7.69476 17.9208 7.7729 17.954C7.84436 17.9843 7.92178 18 8.00008 18C8.07837 18 8.15579 17.9843 8.22725 17.954C8.30535 17.9208 10.1623 17.1266 12.0481 15.8318C13.1706 15.0611 14.0691 14.2717 14.7186 13.4856C15.5689 12.4564 16 11.4223 16 10.4121V2.64551C16 2.5321 15.9615 2.42172 15.8901 2.33073C15.8187 2.23975 15.7183 2.17301 15.6038 2.14042Z" fill="white" fill-opacity="0.5"/>
</svg>
